<svg xmlns="http://www.w3.org/2000/svg" xmlns:xlink="http://www.w3.org/1999/xlink" width="3240" zoomAndPan="magnify" viewBox="0 0 2430 809.999993" height="1080" preserveAspectRatio="xMidYMid meet" version="1.0"><defs><g/><clipPath id="1e3256164a"><path d="M 1815.800781 154.125 L 2097 154.125 L 2097 655.875 L 1815.800781 655.875 Z M 1815.800781 154.125 " clip-rule="nonzero"/></clipPath></defs><g clip-path="url(#1e3256164a)"><path fill="#033854" d="M 1946.683594 154.699219 C 1951.414062 154.550781 1955.425781 154.625 1959.4375 154.425781 C 1964.234375 154.1875 1969.027344 154.554688 1973.8125 154.941406 C 1976.628906 155.167969 1979.457031 155.113281 1982.277344 155.378906 C 1995.046875 156.589844 2007.476562 159.269531 2019.5 163.746094 C 2027.902344 166.875 2036.019531 170.582031 2043.65625 175.3125 C 2053.605469 181.476562 2062.03125 189.3125 2069.324219 198.421875 C 2074.382812 204.746094 2079.105469 211.289062 2082.890625 218.472656 C 2087.648438 227.492188 2090.742188 237.097656 2093.015625 246.992188 C 2095.246094 256.6875 2096.320312 266.511719 2096.765625 276.449219 C 2097.0625 283.035156 2096.859375 289.589844 2096.523438 296.136719 C 2095.542969 315.242188 2092.1875 333.945312 2086.449219 352.214844 C 2083.90625 360.3125 2080.898438 368.222656 2077.425781 375.964844 C 2073.238281 385.3125 2067.742188 393.871094 2061.601562 402.03125 C 2056.03125 409.4375 2050.316406 416.734375 2044.863281 424.226562 C 2037.933594 433.742188 2031.527344 443.609375 2025.128906 453.480469 C 2018.117188 464.289062 2010.996094 475.019531 2003.773438 485.683594 C 1997.617188 494.769531 1991.855469 504.113281 1985.949219 513.363281 C 1983.480469 517.238281 1981.011719 521.121094 1978.203125 524.769531 C 1977.652344 525.484375 1977.347656 526.09375 1978.066406 527.019531 C 1981.71875 531.730469 1981.125 538.753906 1976.636719 542.707031 C 1975.335938 543.851562 1974.921875 544.996094 1975.03125 546.617188 C 1975.421875 552.386719 1975.625 558.164062 1975.386719 563.945312 C 1975.117188 570.570312 1974.917969 577.195312 1974.371094 583.808594 C 1974.160156 586.355469 1974.125 588.917969 1973.960938 591.476562 C 1973.664062 596.128906 1973.621094 600.792969 1973.410156 605.453125 C 1973.28125 608.273438 1973.167969 611.09375 1973.035156 613.910156 C 1972.757812 619.84375 1973.703125 625.550781 1975.667969 631.132812 C 1976.804688 634.363281 1977.617188 637.679688 1978.011719 641.089844 C 1978.285156 643.449219 1978.210938 645.8125 1978.183594 648.171875 C 1978.167969 649.457031 1977.542969 650.402344 1976.472656 651.105469 C 1974.351562 652.488281 1972.050781 653.449219 1969.574219 653.921875 C 1959.695312 655.816406 1949.835938 655.757812 1940.003906 653.5625 C 1938.460938 653.21875 1936.949219 652.757812 1935.511719 652.097656 C 1932.878906 650.890625 1931.382812 648.960938 1931.503906 645.941406 C 1931.664062 641.917969 1932.355469 637.972656 1933.226562 634.0625 C 1934.917969 626.46875 1935.578125 618.769531 1935.894531 611.007812 C 1936.234375 602.546875 1936.46875 594.078125 1936.746094 585.617188 C 1937.078125 575.441406 1937.550781 565.273438 1937.34375 555.089844 C 1937.28125 552.140625 1937.097656 549.1875 1937.007812 546.234375 C 1936.984375 545.363281 1936.664062 544.792969 1935.898438 544.324219 C 1931.542969 541.648438 1930.152344 537.492188 1930.398438 532.683594 C 1930.542969 529.894531 1932.25 527.824219 1934.230469 526.015625 C 1934.773438 525.519531 1934.925781 525.160156 1934.464844 524.542969 C 1931.097656 520 1927.992188 515.277344 1925.03125 510.46875 C 1916.414062 496.476562 1907.125 482.921875 1898.023438 469.246094 C 1892.851562 461.476562 1887.808594 453.625 1882.730469 445.796875 C 1873.636719 431.78125 1863.832031 418.285156 1853.570312 405.101562 C 1847.917969 397.835938 1842.640625 390.300781 1838.417969 382.078125 C 1833.902344 373.285156 1830.253906 364.140625 1827.199219 354.761719 C 1823.980469 344.878906 1821.457031 334.816406 1819.601562 324.589844 C 1818.371094 317.804688 1817.496094 310.96875 1816.921875 304.09375 C 1816.277344 296.367188 1815.8125 288.632812 1815.921875 280.882812 C 1816.148438 265.097656 1818.371094 249.621094 1823.230469 234.550781 C 1827.125 222.457031 1833.183594 211.554688 1841.023438 201.597656 C 1844.484375 197.207031 1848.058594 192.925781 1851.996094 188.945312 C 1858.710938 182.15625 1866.359375 176.601562 1874.738281 172.101562 C 1889.765625 164.03125 1905.738281 158.722656 1922.644531 156.332031 C 1930.847656 155.164062 1939.09375 154.386719 1946.683594 154.699219 Z M 1955.261719 158.785156 C 1950.867188 158.980469 1945.414062 158.65625 1939.953125 159.097656 C 1936.09375 159.40625 1932.210938 159.484375 1928.351562 159.886719 C 1916.578125 161.117188 1905.164062 163.808594 1894.082031 167.964844 C 1883.308594 172.003906 1873.097656 177.0625 1863.914062 184.066406 C 1856.855469 189.449219 1850.910156 195.910156 1845.402344 202.824219 C 1839.015625 210.835938 1833.5625 219.402344 1829.789062 228.957031 C 1823.867188 243.964844 1820.988281 259.601562 1820.375 275.667969 C 1819.988281 285.847656 1820.421875 296.011719 1821.386719 306.164062 C 1822.335938 316.121094 1823.980469 325.949219 1826.277344 335.675781 C 1829.519531 349.398438 1833.953125 362.714844 1839.871094 375.527344 C 1844.585938 385.738281 1850.96875 394.890625 1857.820312 403.742188 C 1865.707031 413.929688 1873.484375 424.199219 1880.582031 434.960938 C 1887.058594 444.78125 1893.445312 454.660156 1899.925781 464.476562 C 1904.597656 471.550781 1909.347656 478.570312 1914.082031 485.605469 C 1922.660156 498.363281 1930.445312 511.640625 1939.175781 524.308594 C 1940.183594 525.773438 1941.257812 526.433594 1943.035156 526.425781 C 1952.371094 526.382812 1961.710938 526.773438 1971.019531 525.695312 C 1972.253906 525.554688 1973.082031 525.140625 1973.753906 524.113281 C 1976.960938 519.226562 1980.300781 514.425781 1983.425781 509.484375 C 1988.695312 501.152344 1993.875 492.765625 1999.421875 484.609375 C 2008.515625 471.242188 2017.386719 457.726562 2026.160156 444.148438 C 2035.191406 430.171875 2044.917969 416.699219 2055.144531 403.574219 C 2061.941406 394.847656 2068.226562 385.78125 2072.890625 375.691406 C 2077.167969 366.429688 2080.679688 356.886719 2083.5625 347.097656 C 2088.855469 329.105469 2091.734375 310.722656 2092.445312 292.007812 C 2092.699219 285.382812 2092.644531 278.75 2092.25 272.117188 C 2091.808594 264.6875 2090.886719 257.339844 2089.324219 250.074219 C 2087.066406 239.566406 2083.898438 229.378906 2078.808594 219.832031 C 2074.894531 212.476562 2069.960938 205.847656 2064.691406 199.449219 C 2057.824219 191.117188 2049.894531 183.992188 2040.617188 178.382812 C 2032.585938 173.523438 2024.035156 169.839844 2015.21875 166.6875 C 1999.996094 161.25 1984.191406 159.3125 1968.152344 158.808594 C 1964.210938 158.679688 1960.261719 158.785156 1955.261719 158.785156 Z M 1970.464844 629.875 C 1970.691406 629.394531 1970.589844 629.070312 1970.5 628.765625 C 1968.882812 623.359375 1968.367188 617.851562 1968.878906 612.234375 C 1969.023438 610.625 1968.835938 610.457031 1967.074219 610.105469 C 1958.882812 608.457031 1950.789062 606.488281 1943.078125 603.179688 C 1940.742188 602.171875 1940.539062 602.292969 1940.410156 604.796875 C 1940.167969 609.445312 1940.039062 614.101562 1939.796875 618.75 C 1939.746094 619.714844 1940.078125 620.230469 1940.941406 620.519531 C 1941.378906 620.660156 1941.796875 620.863281 1942.222656 621.023438 C 1950.21875 624.035156 1958.378906 626.53125 1966.578125 628.914062 C 1967.835938 629.273438 1969.0625 629.769531 1970.464844 629.875 Z M 1974.023438 646.25 C 1973.75 642.847656 1973.703125 639.554688 1972.832031 636.355469 C 1972.519531 635.210938 1971.921875 634.597656 1970.75 634.320312 C 1963.453125 632.582031 1956.292969 630.359375 1949.21875 627.882812 C 1946.363281 626.886719 1943.570312 625.714844 1940.746094 624.636719 C 1939.382812 624.117188 1939.300781 624.152344 1939.097656 625.515625 C 1938.625 628.765625 1938.019531 631.992188 1937.335938 635.203125 C 1936.941406 637.042969 1937.085938 637.28125 1938.863281 638.023438 C 1944.875 640.53125 1950.972656 642.8125 1957.261719 644.527344 C 1962.082031 645.84375 1966.949219 646.980469 1971.898438 647.707031 C 1973.671875 647.960938 1974.015625 647.683594 1974.023438 646.25 Z M 1940.746094 594.679688 C 1940.746094 594.878906 1940.746094 595.074219 1940.746094 595.269531 C 1940.769531 597.988281 1940.25 597.835938 1943.351562 599.050781 C 1951.019531 602.046875 1958.933594 604.175781 1967 605.769531 C 1968.835938 606.128906 1968.84375 606.070312 1969.058594 604.246094 C 1969.554688 600.136719 1969.230469 595.988281 1969.6875 591.875 C 1969.914062 589.84375 1969.765625 589.832031 1967.648438 589.296875 C 1959.183594 587.160156 1950.625 585.335938 1942.609375 581.71875 C 1941.296875 581.125 1941.171875 581.238281 1941.132812 582.6875 C 1941.023438 586.6875 1941.109375 590.691406 1940.746094 594.679688 Z M 1970.84375 571.042969 C 1970.910156 569.433594 1970.824219 569.332031 1969.199219 568.964844 C 1969.007812 568.921875 1968.8125 568.886719 1968.621094 568.851562 C 1961.953125 567.621094 1955.390625 566 1949 563.714844 C 1946.957031 562.984375 1944.914062 562.253906 1942.855469 561.574219 C 1941.875 561.25 1941.671875 561.402344 1941.652344 562.417969 C 1941.570312 566.683594 1941.550781 570.953125 1941.433594 575.214844 C 1941.398438 576.550781 1941.957031 577.273438 1943.171875 577.707031 C 1945.214844 578.429688 1947.210938 579.289062 1949.261719 579.988281 C 1954.554688 581.789062 1960 583.039062 1965.417969 584.386719 C 1966.4375 584.644531 1967.453125 584.949219 1968.484375 585.117188 C 1969.714844 585.320312 1970.042969 585.058594 1970.121094 583.808594 C 1970.386719 579.558594 1970.605469 575.300781 1970.84375 571.042969 Z M 1971.269531 555.378906 C 1971.40625 552.636719 1971.183594 549.824219 1971.015625 547.007812 C 1970.941406 545.765625 1970.769531 545.636719 1969.554688 545.933594 C 1964.28125 547.210938 1958.914062 547.519531 1953.519531 547.484375 C 1949.890625 547.460938 1946.34375 546.722656 1942.773438 546.191406 C 1941.226562 545.964844 1941.027344 546.085938 1941.078125 547.667969 C 1941.15625 550.160156 1941.34375 552.644531 1941.46875 555.132812 C 1941.5625 557 1941.539062 557.027344 1943.332031 557.625 C 1949.253906 559.589844 1955.191406 561.507812 1961.257812 562.976562 C 1964 563.640625 1966.746094 564.320312 1969.546875 564.695312 C 1970.804688 564.867188 1970.902344 564.746094 1971.007812 563.515625 C 1971.246094 560.835938 1971.378906 558.148438 1971.269531 555.378906 Z M 1954.382812 543.339844 C 1956.960938 543.199219 1959.320312 543.117188 1961.675781 542.925781 C 1965.222656 542.636719 1968.710938 542.058594 1972.023438 540.664062 C 1973.550781 540.019531 1974.683594 539.007812 1975.359375 537.492188 C 1975.519531 537.132812 1975.722656 536.746094 1975.425781 536.390625 C 1975.109375 536.019531 1974.695312 536.226562 1974.332031 536.34375 C 1969.550781 537.90625 1964.617188 538.519531 1959.628906 538.945312 C 1953.339844 539.480469 1947.164062 539.09375 1941.09375 537.335938 C 1939.328125 536.824219 1937.59375 536.21875 1935.828125 535.703125 C 1934.96875 535.449219 1934.640625 535.753906 1934.929688 536.566406 C 1935.445312 537.992188 1936.085938 539.324219 1937.515625 540.148438 C 1939.011719 541.019531 1940.589844 541.640625 1942.277344 541.964844 C 1946.34375 542.746094 1950.46875 543.082031 1954.382812 543.339844 Z M 1955.015625 534.808594 C 1959.027344 534.835938 1962.824219 534.546875 1966.59375 533.902344 C 1969.324219 533.4375 1972.003906 532.785156 1974.578125 531.761719 C 1974.996094 531.597656 1975.5 531.417969 1975.445312 530.832031 C 1975.390625 530.214844 1974.933594 529.886719 1974.382812 529.847656 C 1973.535156 529.785156 1972.664062 529.75 1971.824219 529.859375 C 1965.613281 530.660156 1959.359375 530.714844 1953.117188 530.78125 C 1948.066406 530.832031 1942.992188 530.65625 1937.976562 529.867188 C 1937.394531 529.777344 1936.796875 529.691406 1936.21875 529.902344 C 1935.832031 530.042969 1935.5 530.308594 1935.425781 530.714844 C 1935.335938 531.1875 1935.699219 531.410156 1936.082031 531.558594 C 1936.511719 531.726562 1936.941406 531.886719 1937.378906 532.039062 C 1943.152344 534.046875 1949.085938 535.039062 1955.015625 534.808594 Z M 1963.085938 650.382812 C 1962.777344 650.285156 1962.480469 650.167969 1962.164062 650.097656 C 1954.042969 648.324219 1946.238281 645.605469 1938.660156 642.214844 C 1936.144531 641.09375 1935.996094 641.167969 1935.960938 643.851562 C 1935.902344 648.027344 1934.976562 648.105469 1940.292969 649.433594 C 1943.878906 650.332031 1947.546875 650.703125 1951.214844 650.890625 C 1955.144531 651.09375 1959.09375 651.261719 1963.085938 650.382812 Z M 1963.085938 650.382812 " fill-opacity="1" fill-rule="nonzero"/></g><path fill="#033854" d="M 2086.34375 288.535156 C 2086.210938 304.792969 2083.796875 320.71875 2079.234375 336.316406 C 2073.5625 355.691406 2065.105469 373.78125 2054.136719 390.71875 C 2052.351562 393.472656 2050.511719 396.191406 2048.796875 399 C 2045.0625 405.113281 2039.839844 409.792969 2033.996094 413.820312 C 2024.796875 420.160156 2014.621094 424.378906 2003.976562 427.550781 C 1993.671875 430.625 1983.121094 432.496094 1972.421875 433.464844 C 1965.9375 434.046875 1959.429688 434.394531 1952.917969 434.238281 C 1936.457031 433.839844 1920.277344 431.660156 1904.605469 426.4375 C 1895.007812 423.238281 1885.898438 419.03125 1877.828125 412.816406 C 1874.585938 410.316406 1871.695312 407.515625 1869.230469 404.199219 C 1855.242188 385.371094 1844.253906 364.988281 1836.960938 342.667969 C 1833.335938 331.585938 1830.753906 320.261719 1829.332031 308.6875 C 1828.355469 300.726562 1827.835938 292.726562 1828.125 284.703125 C 1828.867188 264.277344 1833.234375 244.75 1842.882812 226.578125 C 1847.3125 218.242188 1852.679688 210.5625 1859.042969 203.566406 C 1872.023438 189.289062 1887.761719 179.265625 1905.960938 172.992188 C 1913.25 170.480469 1920.671875 168.492188 1928.324219 167.46875 C 1932.691406 166.882812 1937.097656 166.570312 1941.496094 166.535156 C 1951.035156 166.457031 1960.574219 166.441406 1970.117188 166.527344 C 1977.222656 166.59375 1984.300781 167.242188 1991.328125 168.269531 C 2010.691406 171.101562 2027.730469 179.246094 2042.957031 191.296875 C 2054.871094 200.726562 2064.242188 212.316406 2071.382812 225.722656 C 2078.410156 238.914062 2082.761719 252.960938 2084.847656 267.730469 C 2085.125 269.679688 2085.378906 271.632812 2085.566406 273.59375 C 2086.039062 278.558594 2086.410156 283.535156 2086.34375 288.535156 Z M 1956.207031 170.636719 C 1951.015625 170.730469 1945.820312 170.671875 1940.625 170.84375 C 1932.042969 171.136719 1923.605469 172.058594 1915.328125 174.5 C 1908.371094 176.550781 1901.515625 178.824219 1894.988281 181.988281 C 1882.300781 188.140625 1871.160156 196.347656 1861.726562 206.875 C 1855.183594 214.175781 1849.746094 222.199219 1845.382812 230.941406 C 1837.617188 246.515625 1833.59375 263.09375 1832.636719 280.40625 C 1832.035156 291.3125 1832.546875 302.203125 1834.230469 313.019531 C 1837.152344 331.796875 1842.96875 349.660156 1851.253906 366.738281 C 1857.464844 379.550781 1864.984375 391.570312 1873.597656 402.914062 C 1874.875 404.597656 1876.335938 406.089844 1877.9375 407.46875 C 1883.773438 412.507812 1890.40625 416.234375 1897.460938 419.226562 C 1913.40625 425.992188 1930.1875 428.957031 1947.375 429.753906 C 1957.164062 430.207031 1966.957031 429.914062 1976.722656 428.730469 C 1989.25 427.210938 2001.472656 424.511719 2013.246094 419.929688 C 2020.882812 416.957031 2028.09375 413.199219 2034.597656 408.167969 C 2037.050781 406.269531 2039.480469 404.304688 2041.34375 401.839844 C 2043.917969 398.4375 2046.300781 394.886719 2048.667969 391.335938 C 2060.039062 374.269531 2068.921875 356.019531 2074.789062 336.34375 C 2078.597656 323.574219 2081.070312 310.554688 2081.765625 297.253906 C 2082.195312 289.058594 2082.089844 280.847656 2081.171875 272.65625 C 2079.777344 260.234375 2076.84375 248.230469 2071.957031 236.710938 C 2067.144531 225.355469 2060.679688 215.042969 2052.375 205.914062 C 2042.1875 194.722656 2030.15625 186.070312 2016.292969 179.953125 C 2009.652344 177.023438 2002.824219 174.589844 1995.71875 173.183594 C 1989.535156 171.957031 1983.222656 171.367188 1976.917969 171.054688 C 1970.023438 170.714844 1963.117188 170.410156 1956.207031 170.636719 Z M 1956.207031 170.636719 " fill-opacity="1" fill-rule="nonzero"/><path fill="#033854" d="M 1956.808594 488.023438 C 1953.320312 488 1950.398438 486.582031 1948.070312 484.09375 C 1943.628906 479.34375 1939.234375 474.554688 1935.398438 469.28125 C 1931.066406 463.324219 1927.425781 456.921875 1923.292969 450.835938 C 1922.296875 449.375 1921.507812 447.769531 1921.035156 446.039062 C 1920.152344 442.785156 1921.320312 440.476562 1924.496094 439.339844 C 1927.179688 438.382812 1929.941406 438.597656 1932.671875 439.085938 C 1934.742188 439.453125 1936.78125 439.96875 1938.832031 440.433594 C 1943.789062 441.546875 1948.8125 441.945312 1953.886719 442.121094 C 1961.027344 442.367188 1968.058594 441.675781 1975.050781 440.324219 C 1978.019531 439.75 1981.011719 439.347656 1984.019531 439.050781 C 1985.484375 438.902344 1986.917969 439.113281 1988.296875 439.574219 C 1990.5625 440.324219 1991.675781 441.953125 1991.652344 444.339844 C 1991.632812 446.527344 1990.722656 448.429688 1989.597656 450.214844 C 1987.953125 452.824219 1986.207031 455.371094 1984.464844 457.917969 C 1978.492188 466.648438 1972.101562 475.078125 1965.777344 483.554688 C 1963.488281 486.625 1960.617188 488.035156 1956.808594 488.023438 Z M 1929.222656 443.027344 C 1928.632812 443.027344 1928.042969 443.015625 1927.449219 443.03125 C 1927.1875 443.035156 1926.921875 443.070312 1926.667969 443.121094 C 1925.121094 443.457031 1924.800781 443.996094 1925.296875 445.476562 C 1925.691406 446.667969 1926.300781 447.761719 1926.984375 448.808594 C 1928.246094 450.734375 1929.605469 452.59375 1930.785156 454.566406 C 1935.945312 463.234375 1941.839844 471.347656 1948.765625 478.703125 C 1950.113281 480.140625 1951.347656 481.691406 1953.078125 482.71875 C 1956.105469 484.515625 1959.414062 484.121094 1961.941406 481.683594 C 1962.9375 480.722656 1963.828125 479.6875 1964.613281 478.542969 C 1966.402344 475.945312 1968.230469 473.375 1970.085938 470.824219 C 1975.074219 463.96875 1979.96875 457.050781 1984.753906 450.050781 C 1985.683594 448.695312 1986.519531 447.273438 1987.082031 445.722656 C 1987.726562 443.945312 1987.402344 443.449219 1985.515625 443.363281 C 1983.003906 443.25 1980.53125 443.652344 1978.070312 444.085938 C 1971.984375 445.152344 1965.898438 446.320312 1959.703125 446.449219 C 1951.527344 446.617188 1943.414062 446.03125 1935.449219 443.984375 C 1933.414062 443.464844 1931.355469 442.957031 1929.222656 443.027344 Z M 1929.222656 443.027344 " fill-opacity="1" fill-rule="nonzero"/><path fill="#033854" d="M 1902.277344 445.90625 C 1902.261719 445.320312 1902.289062 444.859375 1902.761719 444.589844 C 1903.238281 444.324219 1903.683594 444.488281 1904.023438 444.820312 C 1904.585938 445.367188 1905.128906 445.945312 1905.617188 446.558594 C 1910.75 452.984375 1915.25 459.847656 1919.582031 466.824219 C 1925.296875 476.027344 1931.007812 485.234375 1936.839844 494.363281 C 1937.691406 495.695312 1938.503906 497.046875 1938.921875 498.589844 C 1939.054688 499.089844 1939.265625 499.652344 1938.703125 500.011719 C 1938.257812 500.300781 1937.816406 500.011719 1937.410156 499.800781 C 1936.410156 499.269531 1935.597656 498.503906 1934.824219 497.695312 C 1930.859375 493.539062 1927.503906 488.917969 1924.511719 484.042969 C 1918.292969 473.917969 1912.132812 463.753906 1905.992188 453.578125 C 1904.875 451.726562 1903.949219 449.757812 1902.949219 447.839844 C 1902.613281 447.195312 1902.351562 446.523438 1902.277344 445.90625 Z M 1902.277344 445.90625 " fill-opacity="1" fill-rule="nonzero"/><path fill="#033854" d="M 1974.730469 492.835938 C 1974.847656 491.972656 1975.234375 491.210938 1975.609375 490.445312 C 1977.449219 486.714844 1979.875 483.355469 1982.335938 480.03125 C 1990.496094 469 1998.683594 457.984375 2007.289062 447.289062 C 2009.675781 444.324219 2012.050781 441.34375 2014.804688 438.691406 C 2015.421875 438.101562 2016.039062 437.507812 2016.839844 437.164062 C 2017.09375 437.054688 2017.355469 437.003906 2017.578125 437.183594 C 2017.808594 437.371094 2017.808594 437.65625 2017.726562 437.910156 C 2017.398438 438.921875 2016.824219 439.804688 2016.257812 440.6875 C 2013.136719 445.550781 2009.792969 450.265625 2006.375 454.925781 C 1998.683594 465.40625 1990.980469 475.878906 1983.285156 486.359375 C 1981.8125 488.371094 1980.28125 490.34375 1978.640625 492.226562 C 1977.992188 492.96875 1977.335938 493.71875 1976.386719 494.089844 C 1975.214844 494.554688 1974.597656 494.074219 1974.730469 492.835938 Z M 1974.730469 492.835938 " fill-opacity="1" fill-rule="nonzero"/><path fill="#033854" d="M 1909.972656 291.957031 C 1914.460938 291.886719 1918.371094 295.707031 1918.496094 300.285156 C 1918.625 305.148438 1914.335938 309.625 1909.507812 309.671875 C 1905.058594 309.714844 1901.152344 305.78125 1901.117188 301.21875 C 1901.082031 296.289062 1905.152344 292.03125 1909.972656 291.957031 Z M 1914.203125 300.625 C 1914.234375 297.988281 1912.492188 296.035156 1910.132812 296.054688 C 1907.535156 296.078125 1905.195312 298.546875 1905.226562 301.234375 C 1905.253906 303.582031 1907.160156 305.554688 1909.425781 305.582031 C 1912.042969 305.609375 1914.175781 303.398438 1914.203125 300.625 Z M 1914.203125 300.625 " fill-opacity="1" fill-rule="nonzero"/><path fill="#033854" d="M 1900.394531 274.011719 C 1900.414062 278.964844 1896.152344 283.289062 1891.289062 283.246094 C 1886.90625 283.210938 1883.101562 279.351562 1883.019531 274.859375 C 1882.929688 269.957031 1887.1875 265.546875 1892.03125 265.527344 C 1896.492188 265.511719 1900.378906 269.453125 1900.394531 274.011719 Z M 1896.285156 273.953125 C 1896.234375 271.527344 1894.398438 269.644531 1892.0625 269.640625 C 1889.457031 269.628906 1887.085938 272.113281 1887.136719 274.808594 C 1887.179688 277.214844 1889.273438 279.257812 1891.59375 279.144531 C 1894.125 279.023438 1896.34375 276.570312 1896.285156 273.953125 Z M 1896.285156 273.953125 " fill-opacity="1" fill-rule="nonzero"/><path fill="#033854" d="M 1921.246094 328.175781 C 1921.285156 323.285156 1925.507812 319.089844 1930.355469 319.128906 C 1934.808594 319.164062 1938.71875 323.246094 1938.625 327.761719 C 1938.523438 332.628906 1934.175781 336.949219 1929.476562 336.847656 C 1924.972656 336.753906 1921.207031 332.785156 1921.246094 328.175781 Z M 1934.335938 327.808594 C 1934.363281 325.167969 1932.675781 323.273438 1930.261719 323.230469 C 1927.753906 323.1875 1925.414062 325.542969 1925.347656 328.171875 C 1925.289062 330.589844 1927.1875 332.660156 1929.550781 332.75 C 1932.105469 332.847656 1934.304688 330.574219 1934.335938 327.808594 Z M 1934.335938 327.808594 " fill-opacity="1" fill-rule="nonzero"/><path fill="#033854" d="M 2030.101562 285.257812 C 2034.730469 285.285156 2038.558594 289.257812 2038.480469 293.96875 C 2038.40625 298.699219 2034.117188 302.976562 2029.453125 302.96875 C 2024.875 302.964844 2021.039062 298.9375 2021.117188 294.222656 C 2021.191406 289.398438 2025.371094 285.226562 2030.101562 285.257812 Z M 2034.203125 293.910156 C 2034.226562 291.277344 2032.46875 289.320312 2030.113281 289.355469 C 2027.582031 289.390625 2025.304688 291.730469 2025.230469 294.363281 C 2025.15625 296.835938 2027.042969 298.863281 2029.433594 298.878906 C 2032.050781 298.902344 2034.179688 296.683594 2034.203125 293.910156 Z M 2034.203125 293.910156 " fill-opacity="1" fill-rule="nonzero"/><path fill="#033854" d="M 2008.082031 317.160156 C 2008.125 312.335938 2012.253906 308.160156 2017 308.136719 C 2021.496094 308.113281 2025.417969 312.058594 2025.429688 316.609375 C 2025.4375 321.453125 2021.191406 325.835938 2016.457031 325.867188 C 2011.863281 325.890625 2008.035156 321.917969 2008.082031 317.160156 Z M 2021.171875 316.6875 C 2021.160156 314.082031 2019.355469 312.191406 2016.945312 312.246094 C 2014.464844 312.300781 2012.171875 314.761719 2012.171875 317.359375 C 2012.171875 319.847656 2014.101562 321.804688 2016.5 321.757812 C 2019.132812 321.703125 2021.183594 319.472656 2021.171875 316.6875 Z M 2021.171875 316.6875 " fill-opacity="1" fill-rule="nonzero"/><path fill="#033854" d="M 1978.082031 238.710938 C 1978.105469 233.820312 1982.300781 229.617188 1987.152344 229.632812 C 1991.636719 229.640625 1995.496094 233.652344 1995.425781 238.230469 C 1995.355469 243.046875 1991.148438 247.347656 1986.53125 247.332031 C 1981.867188 247.316406 1978.0625 243.429688 1978.082031 238.710938 Z M 1991.167969 238.253906 C 1991.203125 235.660156 1989.453125 233.742188 1987.042969 233.734375 C 1984.5 233.722656 1982.230469 236.050781 1982.183594 238.707031 C 1982.140625 241.136719 1984.09375 243.21875 1986.417969 243.230469 C 1989.0625 243.242188 1991.132812 241.074219 1991.167969 238.253906 Z M 1991.167969 238.253906 " fill-opacity="1" fill-rule="nonzero"/><path fill="#033854" d="M 1995.945312 360.925781 C 1995.90625 365.71875 1991.734375 369.9375 1987.019531 369.953125 C 1982.425781 369.972656 1978.535156 365.964844 1978.636719 361.269531 C 1978.765625 355.394531 1983.796875 352.304688 1987.582031 352.253906 C 1992.210938 352.195312 1995.980469 356.136719 1995.945312 360.925781 Z M 1991.855469 360.804688 C 1991.867188 358.292969 1990.007812 356.355469 1987.589844 356.359375 C 1984.992188 356.371094 1982.882812 358.617188 1982.855469 361.402344 C 1982.824219 363.957031 1984.667969 365.914062 1987.0625 365.871094 C 1989.542969 365.832031 1991.84375 363.402344 1991.855469 360.804688 Z M 1991.855469 360.804688 " fill-opacity="1" fill-rule="nonzero"/><path fill="#033854" d="M 1886.007812 296.511719 C 1886.019531 301.425781 1881.859375 305.746094 1877.097656 305.765625 C 1872.496094 305.785156 1868.6875 301.828125 1868.726562 297.070312 C 1868.773438 292.164062 1872.945312 288.027344 1877.835938 288.054688 C 1882.230469 288.074219 1885.996094 291.972656 1886.007812 296.511719 Z M 1881.820312 296.640625 C 1881.824219 294.035156 1880.054688 292.125 1877.644531 292.140625 C 1875.175781 292.160156 1872.84375 294.601562 1872.816406 297.207031 C 1872.789062 299.695312 1874.683594 301.667969 1877.089844 301.65625 C 1879.707031 301.640625 1881.8125 299.410156 1881.820312 296.640625 Z M 1881.820312 296.640625 " fill-opacity="1" fill-rule="nonzero"/><path fill="#033854" d="M 1908.210938 351.085938 C 1908.234375 346.179688 1912.503906 341.917969 1917.289062 342.015625 C 1921.855469 342.113281 1925.652344 346.066406 1925.554688 350.628906 C 1925.453125 355.535156 1921.152344 359.828125 1916.445312 359.730469 C 1911.910156 359.632812 1908.1875 355.730469 1908.210938 351.085938 Z M 1921.300781 350.570312 C 1921.292969 347.957031 1919.519531 346.074219 1917.097656 346.105469 C 1914.597656 346.140625 1912.296875 348.582031 1912.308594 351.1875 C 1912.320312 353.65625 1914.285156 355.683594 1916.617188 355.644531 C 1919.246094 355.601562 1921.316406 353.359375 1921.300781 350.570312 Z M 1921.300781 350.570312 " fill-opacity="1" fill-rule="nonzero"/><path fill="#033854" d="M 1942.800781 207.132812 C 1942.796875 212.050781 1938.625 216.273438 1933.789062 216.261719 C 1929.289062 216.246094 1925.5625 212.34375 1925.566406 207.640625 C 1925.570312 202.71875 1929.769531 198.484375 1934.585938 198.539062 C 1939.136719 198.59375 1942.808594 202.433594 1942.800781 207.132812 Z M 1929.65625 207.761719 C 1929.65625 210.25 1931.585938 212.210938 1933.988281 212.15625 C 1936.617188 212.097656 1938.660156 209.867188 1938.660156 207.058594 C 1938.65625 204.480469 1936.824219 202.585938 1934.390625 202.648438 C 1931.828125 202.71875 1929.65625 205.066406 1929.65625 207.761719 Z M 1929.65625 207.761719 " fill-opacity="1" fill-rule="nonzero"/><path fill="#033854" d="M 1870.011719 273.242188 C 1870.03125 278.152344 1865.867188 282.476562 1861.09375 282.5 C 1856.558594 282.523438 1852.664062 278.65625 1852.683594 274.039062 C 1852.707031 268.359375 1857.242188 264.9375 1861.605469 264.808594 C 1866.089844 264.675781 1869.992188 268.648438 1870.011719 273.242188 Z M 1865.914062 273.367188 C 1865.914062 270.890625 1863.964844 268.84375 1861.628906 268.867188 C 1859.144531 268.890625 1856.773438 271.371094 1856.785156 273.933594 C 1856.796875 276.398438 1858.757812 278.429688 1861.105469 278.410156 C 1863.667969 278.386719 1865.917969 276.027344 1865.914062 273.367188 Z M 1865.914062 273.367188 " fill-opacity="1" fill-rule="nonzero"/><path fill="#033854" d="M 1982.914062 383.726562 C 1982.859375 388.625 1978.578125 392.945312 1973.867188 392.855469 C 1969.347656 392.773438 1965.566406 388.867188 1965.605469 384.234375 C 1965.652344 378.308594 1970.796875 375.113281 1974.65625 375.132812 C 1979.207031 375.160156 1982.960938 379.09375 1982.914062 383.726562 Z M 1978.816406 383.8125 C 1978.851562 381.257812 1977.0625 379.292969 1974.652344 379.238281 C 1972.175781 379.183594 1969.773438 381.574219 1969.6875 384.171875 C 1969.605469 386.613281 1971.519531 388.695312 1973.894531 388.746094 C 1976.398438 388.800781 1978.773438 386.417969 1978.816406 383.8125 Z M 1978.816406 383.8125 " fill-opacity="1" fill-rule="nonzero"/><path fill="#033854" d="M 1987.609375 311.238281 C 1987.632812 316.117188 1983.460938 320.375 1978.628906 320.410156 C 1974.070312 320.4375 1970.277344 316.636719 1970.21875 311.976562 C 1970.160156 307.074219 1974.28125 302.882812 1979.1875 302.863281 C 1983.820312 302.839844 1987.585938 306.585938 1987.609375 311.238281 Z M 1979.171875 306.945312 C 1976.542969 306.949219 1974.363281 309.203125 1974.363281 311.914062 C 1974.359375 314.441406 1976.203125 316.320312 1978.679688 316.3125 C 1981.300781 316.304688 1983.464844 314.050781 1983.492188 311.308594 C 1983.515625 308.800781 1981.675781 306.945312 1979.171875 306.945312 Z M 1979.171875 306.945312 " fill-opacity="1" fill-rule="nonzero"/><path fill="#033854" d="M 2043.675781 345.636719 C 2043.613281 350.503906 2039.339844 354.738281 2034.554688 354.675781 C 2030.035156 354.609375 2026.230469 350.636719 2026.304688 346.054688 C 2026.386719 341.046875 2030.433594 337.089844 2035.433594 337.136719 C 2040.171875 337.183594 2043.738281 340.859375 2043.675781 345.636719 Z M 2035.171875 341.210938 C 2032.574219 341.242188 2030.382812 343.574219 2030.429688 346.25 C 2030.472656 348.664062 2032.324219 350.570312 2034.636719 350.582031 C 2037.3125 350.59375 2039.554688 348.28125 2039.574219 345.480469 C 2039.585938 343.023438 2037.6875 341.175781 2035.171875 341.210938 Z M 2035.171875 341.210938 " fill-opacity="1" fill-rule="nonzero"/><path fill="#033854" d="M 1938.199219 247.640625 C 1943.242188 247.40625 1946.574219 251.785156 1946.582031 255.964844 C 1946.597656 260.917969 1942.523438 265.097656 1937.652344 265.175781 C 1933.191406 265.253906 1929.296875 261.335938 1929.25 256.714844 C 1929.195312 251.746094 1933.226562 247.660156 1938.199219 247.640625 Z M 1938.304688 251.714844 C 1935.578125 251.683594 1933.503906 253.730469 1933.414062 256.539062 C 1933.332031 258.988281 1935.261719 261.09375 1937.578125 261.089844 C 1940.167969 261.082031 1942.421875 258.824219 1942.492188 256.175781 C 1942.558594 253.667969 1940.75 251.742188 1938.304688 251.714844 Z M 1938.304688 251.714844 " fill-opacity="1" fill-rule="nonzero"/><path fill="#033854" d="M 1952.914062 305.148438 C 1952.914062 310.101562 1948.773438 314.300781 1943.925781 314.265625 C 1939.328125 314.234375 1935.597656 310.417969 1935.601562 305.753906 C 1935.601562 300.875 1939.804688 296.617188 1944.605469 296.632812 C 1949.1875 296.648438 1952.914062 300.464844 1952.914062 305.148438 Z M 1944.488281 300.730469 C 1941.964844 300.761719 1939.667969 303.183594 1939.6875 305.796875 C 1939.703125 308.183594 1941.589844 310.199219 1943.839844 310.234375 C 1946.457031 310.28125 1948.832031 307.847656 1948.820312 305.128906 C 1948.8125 302.628906 1946.914062 300.699219 1944.488281 300.730469 Z M 1944.488281 300.730469 " fill-opacity="1" fill-rule="nonzero"/><path fill="#033854" d="M 1963.804688 261.300781 C 1963.648438 256.066406 1968.074219 252.253906 1972.734375 252.152344 C 1977.265625 252.054688 1980.992188 255.960938 1981 260.679688 C 1981.011719 265.632812 1976.90625 269.855469 1972.058594 269.863281 C 1967.53125 269.867188 1963.796875 266 1963.804688 261.300781 Z M 1976.894531 260.792969 C 1976.917969 258.207031 1975.171875 256.296875 1972.730469 256.234375 C 1970.160156 256.171875 1967.9375 258.457031 1967.90625 261.203125 C 1967.871094 263.816406 1969.585938 265.699219 1972.0625 265.761719 C 1974.613281 265.832031 1976.871094 263.507812 1976.894531 260.792969 Z M 1976.894531 260.792969 " fill-opacity="1" fill-rule="nonzero"/><path fill="#033854" d="M 1928.476562 229.710938 C 1928.441406 234.558594 1924.308594 238.773438 1919.605469 238.757812 C 1914.976562 238.742188 1911.097656 234.757812 1911.1875 230.113281 C 1911.28125 225.21875 1915.328125 221.125 1920.097656 221.101562 C 1924.828125 221.085938 1928.511719 224.867188 1928.476562 229.710938 Z M 1924.371094 229.640625 C 1924.414062 227.085938 1922.605469 225.171875 1920.136719 225.160156 C 1917.527344 225.15625 1915.398438 227.402344 1915.375 230.199219 C 1915.351562 232.761719 1917.144531 234.664062 1919.59375 234.671875 C 1922.183594 234.679688 1924.324219 232.425781 1924.371094 229.640625 Z M 1924.371094 229.640625 " fill-opacity="1" fill-rule="nonzero"/><path fill="#033854" d="M 1872.929688 319.585938 C 1872.894531 324.4375 1868.808594 328.609375 1864.070312 328.640625 C 1859.4375 328.671875 1855.644531 324.753906 1855.695312 319.996094 C 1855.75 315 1859.902344 310.859375 1864.757812 310.957031 C 1869.375 311.050781 1872.96875 314.84375 1872.929688 319.585938 Z M 1868.789062 319.558594 C 1868.808594 316.949219 1867.050781 315.019531 1864.648438 315.011719 C 1862.183594 315.007812 1859.832031 317.445312 1859.789062 320.054688 C 1859.746094 322.542969 1861.632812 324.542969 1864.023438 324.550781 C 1866.621094 324.558594 1868.769531 322.308594 1868.789062 319.558594 Z M 1868.789062 319.558594 " fill-opacity="1" fill-rule="nonzero"/><path fill="#033854" d="M 1972.449219 333.0625 C 1972.269531 338.050781 1968.003906 342.226562 1963.28125 342.039062 C 1958.605469 341.855469 1955.007812 337.882812 1955.183594 333.09375 C 1955.355469 328.253906 1959.636719 324.171875 1964.34375 324.359375 C 1968.984375 324.542969 1972.613281 328.441406 1972.449219 333.0625 Z M 1968.269531 332.847656 C 1968.253906 330.257812 1966.417969 328.34375 1964.015625 328.421875 C 1961.527344 328.5 1959.246094 330.972656 1959.265625 333.574219 C 1959.285156 336.058594 1961.222656 338 1963.625 337.953125 C 1966.238281 337.898438 1968.289062 335.640625 1968.269531 332.847656 Z M 1968.269531 332.847656 " fill-opacity="1" fill-rule="nonzero"/><path fill="#033854" d="M 2052.78125 271.3125 C 2052.753906 276.21875 2048.511719 280.519531 2043.765625 280.449219 C 2039.199219 280.382812 2035.484375 276.542969 2035.46875 271.878906 C 2035.453125 267.03125 2039.707031 262.722656 2044.488281 262.75 C 2049.023438 262.773438 2052.808594 266.679688 2052.78125 271.3125 Z M 2048.691406 271.28125 C 2048.699219 268.777344 2046.800781 266.820312 2044.390625 266.847656 C 2041.855469 266.871094 2039.546875 269.28125 2039.554688 271.894531 C 2039.5625 274.339844 2041.558594 276.40625 2043.882812 276.378906 C 2046.367188 276.347656 2048.683594 273.894531 2048.691406 271.28125 Z M 2048.691406 271.28125 " fill-opacity="1" fill-rule="nonzero"/><path fill="#033854" d="M 1960.871094 233.691406 C 1960.8125 238.546875 1956.722656 242.726562 1951.941406 242.660156 C 1946.714844 242.589844 1943.550781 238.058594 1943.632812 233.941406 C 1943.738281 228.8125 1948.046875 225.019531 1952.585938 224.988281 C 1957.292969 224.960938 1960.929688 228.859375 1960.871094 233.691406 Z M 1956.769531 233.609375 C 1956.792969 231.007812 1955.003906 229.058594 1952.601562 229.0625 C 1950.003906 229.066406 1947.84375 231.304688 1947.785156 234.0625 C 1947.726562 236.628906 1949.539062 238.59375 1951.957031 238.585938 C 1954.601562 238.582031 1956.746094 236.359375 1956.769531 233.609375 Z M 1956.769531 233.609375 " fill-opacity="1" fill-rule="nonzero"/><path fill="#033854" d="M 1945.058594 378.421875 C 1945 383.351562 1940.789062 387.515625 1935.957031 387.410156 C 1931.398438 387.308594 1927.675781 383.382812 1927.761719 378.761719 C 1927.855469 373.757812 1931.917969 369.808594 1936.910156 369.867188 C 1941.609375 369.925781 1945.109375 373.601562 1945.058594 378.421875 Z M 1936.828125 373.945312 C 1934.0625 373.917969 1932.023438 375.949219 1931.960938 378.777344 C 1931.910156 381.363281 1933.652344 383.292969 1936.070312 383.320312 C 1938.703125 383.347656 1940.886719 381.164062 1940.957031 378.433594 C 1941.027344 375.832031 1939.308594 373.96875 1936.828125 373.945312 Z M 1936.828125 373.945312 " fill-opacity="1" fill-rule="nonzero"/><path fill="#033854" d="M 1897.328125 228.089844 C 1897.269531 232.964844 1893.148438 237.152344 1888.441406 237.113281 C 1883.769531 237.070312 1880.128906 233.203125 1880.121094 228.398438 C 1880.117188 222.648438 1885.257812 219.398438 1889.023438 219.398438 C 1893.699219 219.394531 1897.382812 223.273438 1897.328125 228.089844 Z M 1884.234375 228.601562 C 1884.230469 231.046875 1886.035156 232.984375 1888.355469 233.015625 C 1891.042969 233.054688 1893.242188 230.734375 1893.230469 227.878906 C 1893.21875 225.382812 1891.484375 223.527344 1889.136719 223.488281 C 1886.453125 223.449219 1884.242188 225.75 1884.234375 228.601562 Z M 1884.234375 228.601562 " fill-opacity="1" fill-rule="nonzero"/><path fill="#033854" d="M 1907.167969 244.097656 C 1911.945312 244.109375 1915.472656 247.699219 1915.441406 252.507812 C 1915.40625 257.480469 1911.28125 261.667969 1906.457031 261.640625 C 1901.90625 261.613281 1898.144531 257.75 1898.148438 253.109375 C 1898.152344 248.105469 1902.179688 244.082031 1907.167969 244.097656 Z M 1906.589844 257.550781 C 1909.273438 257.5 1911.402344 255.15625 1911.339844 252.3125 C 1911.289062 249.867188 1909.511719 248.152344 1907.050781 248.171875 C 1904.25 248.191406 1902.257812 250.382812 1902.347656 253.335938 C 1902.421875 255.796875 1904.230469 257.59375 1906.589844 257.550781 Z M 1906.589844 257.550781 " fill-opacity="1" fill-rule="nonzero"/><path fill="#033854" d="M 2022.394531 360.011719 C 2026.976562 360.042969 2030.714844 363.898438 2030.644531 368.527344 C 2030.570312 373.320312 2026.402344 377.535156 2021.71875 377.554688 C 2017.125 377.570312 2013.265625 373.738281 2013.261719 369.152344 C 2013.257812 364.066406 2017.347656 359.972656 2022.394531 360.011719 Z M 2021.664062 373.460938 C 2024.246094 373.476562 2026.480469 371.195312 2026.523438 368.503906 C 2026.5625 365.988281 2024.734375 364.101562 2022.25 364.085938 C 2019.617188 364.070312 2017.433594 366.28125 2017.390625 369.011719 C 2017.355469 371.519531 2019.203125 373.445312 2021.664062 373.460938 Z M 2021.664062 373.460938 " fill-opacity="1" fill-rule="nonzero"/><path fill="#033854" d="M 2014.925781 266.027344 C 2014.875 270.949219 2010.640625 275.144531 2005.832031 275.035156 C 2001.320312 274.9375 1997.542969 270.945312 1997.636719 266.378906 C 1997.738281 261.34375 2001.742188 257.453125 2006.78125 257.496094 C 2011.503906 257.539062 2014.976562 261.175781 2014.925781 266.027344 Z M 2010.828125 265.84375 C 2010.800781 263.226562 2009.074219 261.527344 2006.480469 261.570312 C 2003.757812 261.613281 2001.800781 263.730469 2001.832031 266.601562 C 2001.855469 269.078125 2003.613281 270.929688 2005.953125 270.953125 C 2008.65625 270.972656 2010.859375 268.667969 2010.828125 265.84375 Z M 2010.828125 265.84375 " fill-opacity="1" fill-rule="nonzero"/><path fill="#033854" d="M 1925.320312 270.515625 C 1929.964844 270.550781 1933.554688 274.164062 1933.558594 278.816406 C 1933.558594 283.738281 1929.421875 288.027344 1924.640625 288.054688 C 1920.050781 288.085938 1916.113281 284.070312 1916.183594 279.441406 C 1916.257812 274.46875 1920.34375 270.480469 1925.320312 270.515625 Z M 1925.191406 274.585938 C 1922.554688 274.558594 1920.359375 276.761719 1920.300781 279.492188 C 1920.246094 281.957031 1922.15625 283.949219 1924.578125 283.964844 C 1927.140625 283.980469 1929.410156 281.675781 1929.457031 279.011719 C 1929.5 276.496094 1927.683594 274.613281 1925.191406 274.585938 Z M 1925.191406 274.585938 " fill-opacity="1" fill-rule="nonzero"/><path fill="#033854" d="M 1950.769531 284.238281 C 1950.585938 279.035156 1954.925781 275.179688 1959.636719 275.03125 C 1964.128906 274.890625 1967.9375 278.820312 1967.964844 283.511719 C 1967.996094 288.472656 1963.933594 292.6875 1959.078125 292.742188 C 1954.558594 292.785156 1950.78125 288.917969 1950.769531 284.238281 Z M 1963.863281 283.582031 C 1963.851562 281.003906 1962.039062 279.101562 1959.597656 279.109375 C 1957.007812 279.117188 1954.886719 281.390625 1954.867188 284.1875 C 1954.847656 286.753906 1956.644531 288.636719 1959.121094 288.636719 C 1961.730469 288.636719 1963.875 286.347656 1963.863281 283.582031 Z M 1963.863281 283.582031 " fill-opacity="1" fill-rule="nonzero"/><path fill="#033854" d="M 2022.25 249.5 C 2017.414062 249.511719 2013.582031 245.703125 2013.585938 240.894531 C 2013.59375 236.0625 2017.386719 232.308594 2022.269531 232.308594 C 2027.050781 232.304688 2031.007812 236.207031 2030.996094 240.914062 C 2030.988281 245.671875 2027.09375 249.492188 2022.25 249.5 Z M 2026.703125 240.996094 C 2026.742188 238.289062 2025.03125 236.453125 2022.425781 236.394531 C 2019.742188 236.335938 2017.722656 238.230469 2017.6875 240.835938 C 2017.652344 243.417969 2019.492188 245.34375 2022.054688 245.40625 C 2024.867188 245.472656 2026.660156 243.773438 2026.703125 240.996094 Z M 2026.703125 240.996094 " fill-opacity="1" fill-rule="nonzero"/><path fill="#033854" d="M 2000.644531 288.332031 C 2000.6875 293.167969 1996.453125 297.523438 1991.699219 297.53125 C 1987.101562 297.535156 1983.257812 293.699219 1983.261719 289.113281 C 1983.265625 284.109375 1987.277344 280.015625 1992.207031 279.988281 C 1996.835938 279.957031 2000.601562 283.679688 2000.644531 288.332031 Z M 1992.132812 284.066406 C 1989.53125 284.101562 1987.347656 286.425781 1987.398438 289.109375 C 1987.445312 291.644531 1989.308594 293.480469 1991.789062 293.4375 C 1994.363281 293.390625 1996.566406 291.027344 1996.527344 288.355469 C 1996.484375 285.828125 1994.648438 284.035156 1992.132812 284.066406 Z M 1992.132812 284.066406 " fill-opacity="1" fill-rule="nonzero"/><path fill="#033854" d="M 1883.042969 250.394531 C 1883.050781 255.3125 1878.882812 259.613281 1874.109375 259.621094 C 1869.554688 259.628906 1865.664062 255.585938 1865.734375 250.914062 C 1865.800781 246.140625 1869.984375 241.933594 1874.6875 241.910156 C 1879.234375 241.886719 1883.039062 245.746094 1883.042969 250.394531 Z M 1878.945312 250.4375 C 1878.914062 247.882812 1877.046875 245.953125 1874.636719 245.992188 C 1872.148438 246.03125 1869.785156 248.53125 1869.816406 251.085938 C 1869.847656 253.480469 1871.734375 255.492188 1873.976562 255.519531 C 1876.671875 255.550781 1878.980469 253.1875 1878.945312 250.4375 Z M 1878.945312 250.4375 " fill-opacity="1" fill-rule="nonzero"/><path fill="#033854" d="M 1940.898438 356.097656 C 1940.863281 350.972656 1944.703125 347.023438 1949.734375 346.996094 C 1954.523438 346.96875 1958.0625 350.492188 1958.089844 355.3125 C 1958.121094 360.269531 1954.066406 364.484375 1949.222656 364.535156 C 1944.640625 364.585938 1940.925781 360.824219 1940.898438 356.097656 Z M 1949.160156 360.445312 C 1951.789062 360.445312 1953.949219 358.238281 1953.992188 355.5 C 1954.035156 352.867188 1952.34375 351.070312 1949.816406 351.066406 C 1947.058594 351.0625 1945.027344 353.117188 1944.992188 355.953125 C 1944.960938 358.527344 1946.738281 360.445312 1949.160156 360.445312 Z M 1949.160156 360.445312 " fill-opacity="1" fill-rule="nonzero"/><path fill="#033854" d="M 1904.035156 323.238281 C 1903.960938 328.074219 1899.753906 332.273438 1895.070312 332.179688 C 1890.390625 332.089844 1886.769531 328.226562 1886.84375 323.398438 C 1886.914062 318.558594 1891.011719 314.480469 1895.804688 314.484375 C 1900.445312 314.488281 1904.109375 318.386719 1904.035156 323.238281 Z M 1899.933594 323.140625 C 1899.972656 320.519531 1898.234375 318.585938 1895.816406 318.554688 C 1893.253906 318.523438 1891.023438 320.804688 1890.949219 323.53125 C 1890.878906 326.109375 1892.667969 328.078125 1895.082031 328.082031 C 1897.738281 328.089844 1899.894531 325.894531 1899.933594 323.140625 Z M 1899.933594 323.140625 " fill-opacity="1" fill-rule="nonzero"/><path fill="#033854" d="M 1873.808594 346.507812 C 1873.613281 341.574219 1877.84375 337.433594 1882.746094 337.421875 C 1887.417969 337.410156 1891.003906 341.175781 1891.003906 345.917969 C 1891.003906 350.863281 1886.8125 355.140625 1882.050781 355.0625 C 1877.445312 354.984375 1873.800781 351.199219 1873.808594 346.507812 Z M 1886.898438 345.925781 C 1886.898438 343.328125 1885.132812 341.472656 1882.660156 341.464844 C 1880.113281 341.457031 1877.925781 343.792969 1877.910156 346.527344 C 1877.898438 349.089844 1879.703125 350.984375 1882.15625 350.972656 C 1884.761719 350.957031 1886.902344 348.675781 1886.898438 345.925781 Z M 1886.898438 345.925781 " fill-opacity="1" fill-rule="nonzero"/><path fill="#033854" d="M 2040.765625 323.636719 C 2040.765625 318.628906 2044.75 314.542969 2049.675781 314.488281 C 2054.207031 314.441406 2057.945312 318.285156 2057.960938 323 C 2057.972656 327.953125 2053.867188 332.167969 2049.023438 332.175781 C 2044.503906 332.1875 2040.761719 328.320312 2040.765625 323.636719 Z M 2053.859375 323.015625 C 2053.84375 320.425781 2051.984375 318.488281 2049.585938 318.566406 C 2046.921875 318.652344 2044.867188 320.871094 2044.863281 323.660156 C 2044.859375 326.230469 2046.707031 328.148438 2049.125 328.082031 C 2051.785156 328.011719 2053.878906 325.773438 2053.859375 323.015625 Z M 2053.859375 323.015625 " fill-opacity="1" fill-rule="nonzero"/><path fill="#033854" d="M 2010.230469 338.183594 C 2010.253906 343.242188 2006.367188 347.289062 2001.386719 347.382812 C 1996.800781 347.46875 1993.113281 343.714844 1993.023438 338.976562 C 1992.914062 333.03125 1998.082031 329.816406 2001.894531 329.753906 C 2006.46875 329.675781 2010.203125 333.46875 2010.230469 338.183594 Z M 1997.132812 338.835938 C 1997.105469 341.417969 1998.882812 343.328125 2001.34375 343.355469 C 2003.9375 343.386719 2006.101562 341.125 2006.132812 338.351562 C 2006.160156 335.75 2004.421875 333.882812 2001.949219 333.851562 C 1999.363281 333.816406 1997.164062 336.09375 1997.132812 338.835938 Z M 1997.132812 338.835938 " fill-opacity="1" fill-rule="nonzero"/><path fill="#033854" d="M 1968.375 199.957031 C 1973.179688 200.003906 1977.046875 203.949219 1976.9375 208.695312 C 1976.828125 213.480469 1972.917969 217.210938 1968.070312 217.152344 C 1963.292969 217.089844 1959.4375 213.125 1959.539062 208.378906 C 1959.636719 203.539062 1963.445312 199.914062 1968.375 199.957031 Z M 1968.148438 213.050781 C 1970.679688 213.089844 1972.75 211.175781 1972.84375 208.710938 C 1972.945312 206.148438 1970.9375 204.089844 1968.292969 204.039062 C 1965.703125 203.988281 1963.695312 205.847656 1963.636719 208.355469 C 1963.570312 211.023438 1965.476562 213.007812 1968.148438 213.050781 Z M 1968.148438 213.050781 " fill-opacity="1" fill-rule="nonzero"/><path fill="#033854" d="M 2007.867188 184.726562 C 2009.242188 184.894531 2010.589844 185.164062 2011.902344 185.601562 C 2015.105469 186.660156 2018.089844 188.167969 2020.964844 189.898438 C 2025.703125 192.753906 2030.261719 195.851562 2034.160156 199.820312 C 2035.921875 201.613281 2037.355469 203.644531 2038.636719 205.792969 C 2038.96875 206.351562 2039.21875 206.972656 2039.417969 207.59375 C 2039.574219 208.078125 2039.757812 208.671875 2039.226562 209.035156 C 2038.714844 209.386719 2038.210938 209.027344 2037.761719 208.78125 C 2036.707031 208.199219 2035.9375 207.28125 2035.121094 206.433594 C 2029.054688 200.148438 2022.152344 194.953125 2014.574219 190.632812 C 2012.6875 189.558594 2010.765625 188.566406 2008.742188 187.773438 C 2008.253906 187.582031 2007.761719 187.390625 2007.28125 187.171875 C 2006.628906 186.878906 2005.804688 186.617188 2006.074219 185.671875 C 2006.316406 184.832031 2007.15625 184.84375 2007.867188 184.726562 Z M 2007.867188 184.726562 " fill-opacity="1" fill-rule="nonzero"/><path fill="#033854" d="M 1907.238281 417.042969 C 1905.785156 416.953125 1904.398438 416.542969 1903.027344 416.082031 C 1895.339844 413.496094 1888.484375 409.449219 1882.28125 404.257812 C 1879.957031 402.316406 1877.71875 400.296875 1875.984375 397.789062 C 1875.457031 397.035156 1874.914062 396.285156 1874.667969 395.382812 C 1874.511719 394.808594 1874.394531 394.179688 1875.003906 393.78125 C 1875.527344 393.441406 1876.0625 393.703125 1876.457031 394.035156 C 1877.566406 394.957031 1878.671875 395.890625 1879.695312 396.90625 C 1883.160156 400.328125 1886.882812 403.429688 1890.925781 406.152344 C 1896.015625 409.582031 1901.453125 412.324219 1907.203125 414.449219 C 1907.390625 414.519531 1907.585938 414.5625 1907.757812 414.65625 C 1908.453125 415.027344 1909.714844 414.984375 1909.425781 416.175781 C 1909.175781 417.199219 1908.082031 417 1907.238281 417.042969 Z M 1907.238281 417.042969 " fill-opacity="1" fill-rule="nonzero"/><path fill="#033854" d="M 2050.425781 220.992188 C 2050.445312 221.960938 2049.902344 222.378906 2049.0625 221.863281 C 2047.167969 220.707031 2045.90625 218.992188 2045.195312 216.902344 C 2045.027344 216.40625 2045.101562 215.855469 2045.546875 215.464844 C 2045.941406 215.121094 2046.371094 215.160156 2046.820312 215.371094 C 2048.0625 215.957031 2050.398438 219.585938 2050.425781 220.992188 Z M 2050.425781 220.992188 " fill-opacity="1" fill-rule="nonzero"/><g fill="#69c5a0" fill-opacity="1"><g transform="translate(337.681746, 506.074933)"><g><path d="M 304.199219 -268.066406 C 286.550781 -286.132812 267.644531 -292.433594 228.988281 -293.695312 C 198.738281 -294.957031 180.671875 -292.433594 151.257812 -283.191406 C 86.554688 -262.183594 33.613281 -208.402344 33.613281 -163.445312 C 33.613281 -146.636719 39.496094 -129.832031 49.578125 -120.167969 C 55.460938 -113.863281 62.183594 -110.921875 69.328125 -110.921875 C 73.949219 -110.921875 77.308594 -112.605469 78.570312 -115.546875 C 81.511719 -123.527344 79.832031 -128.570312 71.429688 -133.613281 C 68.066406 -135.714844 63.445312 -140.335938 61.765625 -144.117188 C 57.5625 -152.941406 57.5625 -169.324219 62.183594 -179.410156 C 86.554688 -235.292969 165.125 -275.207031 237.394531 -268.066406 C 260.082031 -265.964844 272.6875 -261.761719 283.609375 -252.097656 C 292.855469 -243.695312 297.054688 -236.132812 299.996094 -222.6875 C 306.71875 -191.175781 296.636719 -157.5625 268.484375 -119.328125 C 236.972656 -76.46875 198.316406 -56.722656 156.722656 -61.765625 C 152.519531 -62.183594 147.476562 -63.023438 146.636719 -63.863281 C 146.21875 -65.125 150 -71.847656 153.78125 -78.992188 C 159.242188 -88.65625 170.585938 -110.503906 179.832031 -127.308594 C 188.652344 -144.117188 197.898438 -161.34375 200.417969 -165.542969 L 204.621094 -173.109375 C 205.460938 -174.367188 205.039062 -175.628906 204.199219 -176.890625 L 200 -180.671875 C 197.898438 -182.769531 194.957031 -185.710938 190.335938 -184.871094 C 184.03125 -184.03125 177.730469 -175.628906 164.703125 -151.679688 C 160.921875 -144.535156 152.097656 -128.570312 145.375 -116.386719 C 138.234375 -103.78125 129.410156 -88.65625 126.050781 -81.933594 L 121.425781 -73.527344 L 117.644531 -76.46875 C 114.285156 -79.410156 109.664062 -83.191406 107.5625 -85.714844 C 105.042969 -87.8125 101.257812 -90.753906 98.320312 -90.753906 C 92.855469 -90.753906 85.292969 -82.773438 85.292969 -76.890625 C 85.292969 -71.007812 95.378906 -60.921875 104.621094 -53.78125 L 109.242188 -50.417969 L 98.738281 -30.25 C 75.210938 14.707031 55.882812 33.191406 38.234375 27.730469 C 33.613281 26.050781 33.613281 25.210938 33.613281 24.371094 C 33.613281 17.648438 28.992188 13.023438 21.429688 13.023438 C 14.707031 13.023438 8.824219 16.804688 6.722656 22.6875 C 4.203125 28.992188 5.882812 36.132812 11.765625 41.597656 C 14.707031 44.539062 20.589844 48.320312 24.789062 50.417969 C 30.25 52.941406 36.554688 54.203125 42.855469 54.203125 C 50.417969 54.203125 58.402344 52.101562 66.386719 48.738281 C 85.714844 39.496094 104.199219 15.964844 126.050781 -26.46875 C 129.410156 -33.191406 131.929688 -37.816406 133.191406 -39.914062 C 135.292969 -39.496094 140.335938 -38.65625 146.21875 -37.394531 C 182.351562 -29.832031 223.105469 -40.757812 255.460938 -66.804688 C 274.789062 -82.773438 302.519531 -119.328125 314.28125 -145.375 C 335.289062 -191.59375 331.507812 -241.175781 304.199219 -268.066406 Z M 304.199219 -268.066406 "/></g></g></g><g fill="#69c5a0" fill-opacity="1"><g transform="translate(644.819864, 506.074933)"><g><path d="M 173.109375 -106.300781 C 169.746094 -108.402344 166.386719 -109.242188 163.023438 -108.402344 C 158.820312 -107.140625 154.621094 -103.359375 151.679688 -97.058594 C 141.59375 -77.730469 110.082031 -41.175781 94.117188 -30.25 C 86.132812 -25.210938 85.292969 -25.628906 82.773438 -28.152344 C 76.46875 -34.453125 84.453125 -63.023438 115.964844 -112.605469 C 116.804688 -114.285156 125.207031 -127.730469 125.207031 -131.089844 C 125.207031 -134.03125 123.527344 -136.972656 120.167969 -139.074219 C 117.226562 -141.175781 113.023438 -142.855469 109.664062 -141.59375 C 106.300781 -140.335938 101.679688 -134.03125 99.578125 -131.089844 L 96.21875 -126.46875 L 94.535156 -129.410156 C 87.8125 -141.59375 80.671875 -145.375 66.804688 -145.375 C 66.386719 -145.375 66.386719 -145.375 66.386719 -145.375 C 56.722656 -145.375 51.679688 -144.117188 44.117188 -139.914062 C 0 -115.964844 -38.234375 -46.636719 -23.527344 -18.066406 C -19.746094 -10.503906 -13.445312 -5.460938 -5.460938 -4.203125 C 9.664062 -1.679688 29.832031 -10.925781 51.679688 -31.09375 L 54.621094 -33.613281 C 55.042969 -19.746094 62.605469 -7.984375 73.949219 -2.941406 C 77.308594 -1.261719 80.671875 -0.421875 84.03125 -0.421875 C 97.058594 -0.421875 112.183594 -9.664062 129.832031 -27.3125 C 151.679688 -49.160156 178.988281 -86.972656 178.988281 -98.320312 C 178.988281 -101.257812 176.046875 -104.621094 173.109375 -106.300781 Z M 73.527344 -102.519531 C 71.847656 -94.117188 68.90625 -89.914062 57.140625 -75.210938 C 42.015625 -56.300781 29.410156 -44.539062 14.707031 -35.292969 C 9.664062 -31.933594 3.78125 -29.832031 1.261719 -29.832031 L -0.839844 -29.832031 L -0.421875 -37.394531 C 1.261719 -57.984375 21.429688 -90.335938 44.539062 -109.242188 C 58.402344 -121.007812 67.226562 -122.6875 71.007812 -120.585938 C 74.367188 -118.484375 75.210938 -111.761719 73.527344 -102.519531 Z M 73.527344 -102.519531 "/></g></g></g><g fill="#69c5a0" fill-opacity="1"><g transform="translate(797.758698, 506.074933)"><g><path d="M 174.367188 -109.664062 C 166.804688 -109.664062 161.761719 -105.882812 154.621094 -93.695312 C 138.234375 -66.386719 112.183594 -36.972656 97.476562 -29.410156 C 88.65625 -25.210938 85.714844 -26.050781 84.875 -26.890625 C 84.03125 -27.730469 81.933594 -31.09375 85.292969 -45.378906 C 92.855469 -75.210938 145.375 -177.730469 165.125 -207.5625 C 172.265625 -218.066406 174.789062 -224.789062 173.527344 -230.25 C 172.6875 -232.769531 171.007812 -234.871094 168.484375 -236.132812 C 165.964844 -237.394531 161.761719 -238.234375 159.242188 -237.394531 C 155.039062 -236.132812 142.4375 -218.066406 140.335938 -214.285156 C 128.570312 -197.058594 98.738281 -139.914062 93.695312 -129.832031 C 92.4375 -130.25 91.175781 -131.511719 89.496094 -132.773438 C 69.328125 -150.839844 43.277344 -144.535156 13.023438 -113.863281 C -8.824219 -91.597656 -40.335938 -41.175781 -24.789062 -15.125 C -18.90625 -5.460938 -9.664062 -0.421875 2.101562 -0.421875 C 14.707031 -0.421875 31.511719 -14.285156 49.160156 -28.992188 L 57.5625 -36.132812 L 57.5625 -32.773438 C 57.5625 -20.167969 62.605469 -9.242188 71.007812 -4.203125 C 75.210938 -1.679688 80.25 -0.421875 85.714844 -0.421875 C 98.738281 -0.421875 115.125 -7.984375 129.832031 -21.429688 C 149.160156 -39.074219 185.710938 -88.65625 185.710938 -99.578125 C 185.710938 -105.460938 179.832031 -109.664062 174.367188 -109.664062 Z M 77.308594 -104.199219 C 76.890625 -99.578125 74.367188 -94.117188 71.007812 -89.496094 C 57.984375 -72.6875 34.035156 -44.957031 23.527344 -37.394531 C -21.847656 -4.203125 -4.621094 -56.722656 30.25 -93.695312 C 47.480469 -111.761719 57.984375 -117.226562 65.125 -117.226562 C 68.90625 -117.226562 71.847656 -115.546875 74.367188 -113.863281 C 78.152344 -110.921875 78.152344 -110.921875 77.308594 -104.199219 Z M 77.308594 -104.199219 "/></g></g></g><g fill="#69c5a0" fill-opacity="1"><g transform="translate(954.479006, 506.074933)"><g><path d="M 131.929688 -109.664062 C 126.46875 -109.664062 122.269531 -105.460938 110.503906 -92.015625 C 77.730469 -54.203125 41.175781 -24.789062 24.371094 -26.46875 C 18.488281 -27.3125 14.285156 -30.671875 11.34375 -36.554688 C 7.144531 -44.117188 7.984375 -52.941406 13.023438 -67.644531 C 14.707031 -72.269531 15.546875 -73.109375 15.125 -73.527344 C 29.832031 -67.226562 46.636719 -70.167969 63.863281 -81.511719 C 82.773438 -94.117188 94.535156 -113.863281 92.855469 -130.671875 C 92.015625 -140.335938 86.132812 -148.316406 76.46875 -152.097656 C 68.90625 -155.460938 55.460938 -153.359375 45.796875 -147.476562 C 34.875 -141.175781 13.445312 -118.90625 3.78125 -104.199219 C -12.605469 -79.832031 -20.167969 -53.78125 -15.964844 -36.132812 C -11.765625 -18.90625 -0.839844 -7.144531 15.546875 -2.101562 C 18.90625 -1.261719 22.6875 -0.421875 26.46875 -0.421875 C 37.394531 -0.421875 50.417969 -4.621094 64.707031 -13.023438 C 85.292969 -25.210938 144.117188 -86.132812 144.117188 -97.476562 C 144.117188 -105.460938 139.914062 -109.664062 131.929688 -109.664062 Z M 42.855469 -111.34375 C 49.160156 -117.644531 58.402344 -126.050781 63.023438 -127.308594 C 65.125 -127.730469 66.386719 -127.730469 67.226562 -127.730469 C 67.226562 -127.308594 67.226562 -126.050781 66.386719 -123.527344 C 65.125 -115.964844 53.359375 -102.941406 44.117188 -98.320312 C 36.972656 -94.957031 31.09375 -94.535156 28.992188 -94.957031 C 30.671875 -97.476562 35.714844 -103.78125 42.855469 -111.34375 Z M 42.855469 -111.34375 "/></g></g></g><g fill="#69c5a0" fill-opacity="1"><g transform="translate(1071.70411, 506.074933)"><g><path d="M 113.445312 -89.914062 C 112.605469 -93.695312 109.664062 -95.378906 107.140625 -96.636719 C 97.898438 -101.257812 90.753906 -94.535156 79.832031 -78.992188 C 64.707031 -57.5625 44.539062 -38.234375 30.25 -31.09375 C 21.847656 -26.890625 16.386719 -25.628906 13.867188 -27.3125 C 11.34375 -28.992188 10.082031 -34.035156 10.082031 -42.855469 C 10.503906 -60.082031 18.488281 -79.410156 43.277344 -122.6875 C 66.804688 -163.863281 88.65625 -200.839844 95.378906 -210.921875 C 98.738281 -215.964844 102.519531 -222.6875 103.359375 -224.789062 C 104.621094 -228.148438 104.199219 -231.929688 102.519531 -234.453125 C 100.417969 -237.394531 97.058594 -239.074219 92.855469 -239.074219 C 86.554688 -239.074219 83.613281 -236.132812 73.109375 -221.007812 C 42.4375 -176.46875 -5.460938 -90.753906 -11.765625 -67.644531 C -15.964844 -52.101562 -16.804688 -33.613281 -13.445312 -23.527344 C -10.503906 -14.707031 -0.421875 -4.203125 7.5625 -1.679688 C 10.082031 -0.839844 13.023438 -0.421875 15.546875 -0.421875 C 22.6875 -0.421875 30.671875 -2.941406 42.015625 -8.402344 C 60.082031 -17.226562 78.992188 -35.292969 99.160156 -62.183594 C 110.082031 -76.890625 114.703125 -84.453125 113.445312 -89.914062 Z M 113.445312 -89.914062 "/></g></g></g><g fill="#69c5a0" fill-opacity="1"><g transform="translate(1167.500958, 506.074933)"><g><path d="M 95.796875 -110.082031 C 89.914062 -110.082031 75.628906 -88.234375 64.707031 -74.367188 C 41.597656 -45.796875 22.6875 -29.410156 7.984375 -26.050781 C 5.882812 -25.628906 5.460938 -25.628906 5.460938 -25.628906 C 5.042969 -25.628906 5.042969 -26.050781 4.203125 -27.730469 C 1.679688 -34.035156 6.722656 -55.460938 22.6875 -87.8125 C 33.613281 -109.242188 45.796875 -127.730469 47.898438 -129.410156 C 50.839844 -130.25 52.519531 -134.03125 52.519531 -139.496094 C 52.519531 -145.375 51.679688 -148.316406 46.21875 -150.839844 C 43.695312 -152.097656 39.496094 -153.359375 35.714844 -151.257812 C 28.992188 -147.058594 7.984375 -114.285156 -2.519531 -92.855469 C -25.628906 -46.636719 -27.730469 -18.90625 -10.082031 -5.042969 C -5.882812 -1.679688 -1.679688 -0.421875 6.300781 -0.421875 C 21.429688 -0.421875 39.496094 -10.082031 57.984375 -28.570312 C 71.847656 -42.015625 109.242188 -90.753906 109.242188 -97.898438 C 109.242188 -105.882812 102.941406 -110.082031 95.796875 -110.082031 Z M 55.882812 -160.082031 C 58.824219 -160.082031 62.183594 -161.34375 65.964844 -163.445312 C 75.210938 -168.90625 78.570312 -178.570312 74.367188 -186.132812 C 71.429688 -191.59375 67.644531 -192.433594 61.765625 -192.855469 C 54.203125 -193.695312 51.679688 -192.433594 47.058594 -186.972656 C 39.914062 -178.570312 39.914062 -170.585938 45.796875 -164.285156 C 48.738281 -161.34375 52.101562 -160.082031 55.882812 -160.082031 Z M 55.882812 -160.082031 "/></g></g></g><g fill="#69c5a0" fill-opacity="1"><g transform="translate(1253.213902, 506.074933)"><g><path d="M 147.476562 -109.664062 C 141.175781 -109.664062 139.496094 -102.519531 116.804688 -77.308594 C 104.621094 -63.445312 89.074219 -50.839844 72.6875 -42.015625 C 69.328125 -40.335938 65.964844 -38.234375 63.863281 -37.394531 C 63.863281 -37.394531 63.863281 -37.816406 63.863281 -37.816406 C 63.863281 -46.636719 56.722656 -59.242188 42.015625 -74.367188 C 26.46875 -91.597656 25.628906 -94.957031 29.410156 -102.101562 C 37.816406 -117.644531 61.34375 -126.46875 71.007812 -122.6875 C 73.109375 -122.269531 75.210938 -120.585938 73.949219 -115.546875 C 73.109375 -110.921875 73.949219 -106.300781 76.050781 -103.359375 C 78.152344 -100.839844 81.511719 -99.160156 85.292969 -99.160156 C 89.914062 -99.160156 92.855469 -100.839844 94.957031 -104.199219 C 96.636719 -107.140625 97.476562 -111.761719 97.476562 -118.484375 C 97.476562 -126.890625 94.957031 -134.03125 89.496094 -139.074219 C 83.613281 -144.957031 74.367188 -148.316406 63.023438 -148.316406 C 62.605469 -148.316406 62.605469 -148.316406 62.183594 -148.316406 C 39.074219 -147.898438 11.765625 -128.992188 3.78125 -107.5625 C 0.839844 -100 0.421875 -96.636719 2.519531 -87.8125 C 4.621094 -78.570312 7.144531 -74.789062 21.007812 -59.664062 C 30.25 -49.578125 36.554688 -41.175781 37.394531 -39.496094 C 37.816406 -36.132812 35.714844 -29.832031 32.773438 -28.152344 C 30.25 -26.46875 21.847656 -26.890625 13.445312 -31.09375 C 7.144531 -34.035156 2.941406 -34.875 -0.421875 -33.613281 C -4.203125 -31.933594 -5.882812 -27.730469 -7.144531 -24.789062 C -8.402344 -21.007812 -7.984375 -17.226562 -6.300781 -13.867188 C -2.941406 -7.984375 3.78125 -3.359375 12.605469 -1.261719 C 15.964844 -0.421875 19.328125 0 23.109375 0 C 49.160156 0 88.65625 -17.648438 120.167969 -44.117188 C 126.46875 -49.578125 160.921875 -92.015625 160.921875 -97.058594 C 160.921875 -102.519531 153.359375 -109.664062 147.476562 -109.664062 Z M 147.476562 -109.664062 "/></g></g></g><g fill="#69c5a0" fill-opacity="1"><g transform="translate(1388.085785, 506.074933)"><g><path d="M 173.527344 -210.082031 C 173.109375 -213.445312 171.007812 -216.382812 168.066406 -218.066406 C 159.242188 -223.949219 153.359375 -217.644531 148.316406 -209.660156 C 141.175781 -199.15625 136.132812 -196.214844 113.023438 -196.214844 C 105.042969 -196.214844 98.738281 -196.636719 95.378906 -197.058594 C 97.476562 -202.9375 105.460938 -217.226562 107.5625 -218.90625 C 109.242188 -220.164062 110.503906 -222.265625 110.921875 -225.207031 C 110.921875 -228.570312 110.082031 -233.191406 107.140625 -235.292969 C 104.621094 -237.394531 100.417969 -238.234375 97.058594 -237.8125 C 91.597656 -236.972656 88.234375 -232.769531 80.25 -220.164062 C 79.410156 -218.90625 72.6875 -207.980469 70.167969 -203.78125 C 68.90625 -203.78125 65.964844 -204.199219 60.921875 -205.460938 C 54.621094 -207.140625 43.695312 -208.402344 36.972656 -208.402344 C 21.007812 -208.402344 4.621094 -201.257812 -0.839844 -191.59375 C -2.941406 -187.8125 -2.941406 -183.613281 -0.839844 -180.25 C 4.203125 -172.265625 12.605469 -175.628906 20.589844 -179.832031 C 30.671875 -184.453125 40.757812 -185.292969 51.679688 -181.929688 L 55.042969 -181.089844 L 47.898438 -171.425781 C 28.992188 -144.957031 3.359375 -105.042969 -3.78125 -90.753906 C -11.765625 -74.789062 -17.226562 -57.140625 -17.226562 -46.21875 C -17.226562 -28.992188 -5.460938 -9.242188 9.242188 -2.519531 C 13.867188 -0.421875 18.488281 0.839844 23.109375 0.839844 C 35.292969 0.839844 48.738281 -6.300781 67.226562 -21.007812 C 87.394531 -37.394531 117.644531 -76.050781 122.6875 -91.175781 C 123.949219 -95.378906 123.527344 -103.359375 119.328125 -106.722656 C 114.703125 -110.082031 108.824219 -110.503906 105.042969 -107.980469 C 102.519531 -106.300781 91.175781 -88.234375 90.335938 -86.554688 C 75.628906 -64.285156 64.285156 -51.679688 48.738281 -39.074219 C 35.714844 -28.570312 27.3125 -24.371094 21.429688 -25.628906 C 18.066406 -26.46875 14.707031 -29.410156 11.765625 -34.453125 C 3.359375 -50.417969 13.867188 -75.628906 54.621094 -135.292969 L 79.410156 -171.847656 L 84.875 -171.847656 C 137.8125 -168.484375 151.679688 -172.265625 167.226562 -192.433594 C 172.265625 -199.15625 174.367188 -205.039062 173.527344 -210.082031 Z M 173.527344 -210.082031 "/></g></g></g><g fill="#69c5a0" fill-opacity="1"><g transform="translate(1487.664106, 506.074933)"><g><path d="M 173.109375 -106.300781 C 169.746094 -108.402344 166.386719 -109.242188 163.023438 -108.402344 C 158.820312 -107.140625 154.621094 -103.359375 151.679688 -97.058594 C 141.59375 -77.730469 110.082031 -41.175781 94.117188 -30.25 C 86.132812 -25.210938 85.292969 -25.628906 82.773438 -28.152344 C 76.46875 -34.453125 84.453125 -63.023438 115.964844 -112.605469 C 116.804688 -114.285156 125.207031 -127.730469 125.207031 -131.089844 C 125.207031 -134.03125 123.527344 -136.972656 120.167969 -139.074219 C 117.226562 -141.175781 113.023438 -142.855469 109.664062 -141.59375 C 106.300781 -140.335938 101.679688 -134.03125 99.578125 -131.089844 L 96.21875 -126.46875 L 94.535156 -129.410156 C 87.8125 -141.59375 80.671875 -145.375 66.804688 -145.375 C 66.386719 -145.375 66.386719 -145.375 66.386719 -145.375 C 56.722656 -145.375 51.679688 -144.117188 44.117188 -139.914062 C 0 -115.964844 -38.234375 -46.636719 -23.527344 -18.066406 C -19.746094 -10.503906 -13.445312 -5.460938 -5.460938 -4.203125 C 9.664062 -1.679688 29.832031 -10.925781 51.679688 -31.09375 L 54.621094 -33.613281 C 55.042969 -19.746094 62.605469 -7.984375 73.949219 -2.941406 C 77.308594 -1.261719 80.671875 -0.421875 84.03125 -0.421875 C 97.058594 -0.421875 112.183594 -9.664062 129.832031 -27.3125 C 151.679688 -49.160156 178.988281 -86.972656 178.988281 -98.320312 C 178.988281 -101.257812 176.046875 -104.621094 173.109375 -106.300781 Z M 73.527344 -102.519531 C 71.847656 -94.117188 68.90625 -89.914062 57.140625 -75.210938 C 42.015625 -56.300781 29.410156 -44.539062 14.707031 -35.292969 C 9.664062 -31.933594 3.78125 -29.832031 1.261719 -29.832031 L -0.839844 -29.832031 L -0.421875 -37.394531 C 1.261719 -57.984375 21.429688 -90.335938 44.539062 -109.242188 C 58.402344 -121.007812 67.226562 -122.6875 71.007812 -120.585938 C 74.367188 -118.484375 75.210938 -111.761719 73.527344 -102.519531 Z M 73.527344 -102.519531 "/></g></g></g><g fill="#69c5a0" fill-opacity="1"><g transform="translate(1640.603007, 506.074933)"><g><path d="M 147.476562 -109.664062 C 141.175781 -109.664062 139.496094 -102.519531 116.804688 -77.308594 C 104.621094 -63.445312 89.074219 -50.839844 72.6875 -42.015625 C 69.328125 -40.335938 65.964844 -38.234375 63.863281 -37.394531 C 63.863281 -37.394531 63.863281 -37.816406 63.863281 -37.816406 C 63.863281 -46.636719 56.722656 -59.242188 42.015625 -74.367188 C 26.46875 -91.597656 25.628906 -94.957031 29.410156 -102.101562 C 37.816406 -117.644531 61.34375 -126.46875 71.007812 -122.6875 C 73.109375 -122.269531 75.210938 -120.585938 73.949219 -115.546875 C 73.109375 -110.921875 73.949219 -106.300781 76.050781 -103.359375 C 78.152344 -100.839844 81.511719 -99.160156 85.292969 -99.160156 C 89.914062 -99.160156 92.855469 -100.839844 94.957031 -104.199219 C 96.636719 -107.140625 97.476562 -111.761719 97.476562 -118.484375 C 97.476562 -126.890625 94.957031 -134.03125 89.496094 -139.074219 C 83.613281 -144.957031 74.367188 -148.316406 63.023438 -148.316406 C 62.605469 -148.316406 62.605469 -148.316406 62.183594 -148.316406 C 39.074219 -147.898438 11.765625 -128.992188 3.78125 -107.5625 C 0.839844 -100 0.421875 -96.636719 2.519531 -87.8125 C 4.621094 -78.570312 7.144531 -74.789062 21.007812 -59.664062 C 30.25 -49.578125 36.554688 -41.175781 37.394531 -39.496094 C 37.816406 -36.132812 35.714844 -29.832031 32.773438 -28.152344 C 30.25 -26.46875 21.847656 -26.890625 13.445312 -31.09375 C 7.144531 -34.035156 2.941406 -34.875 -0.421875 -33.613281 C -4.203125 -31.933594 -5.882812 -27.730469 -7.144531 -24.789062 C -8.402344 -21.007812 -7.984375 -17.226562 -6.300781 -13.867188 C -2.941406 -7.984375 3.78125 -3.359375 12.605469 -1.261719 C 15.964844 -0.421875 19.328125 0 23.109375 0 C 49.160156 0 88.65625 -17.648438 120.167969 -44.117188 C 126.46875 -49.578125 160.921875 -92.015625 160.921875 -97.058594 C 160.921875 -102.519531 153.359375 -109.664062 147.476562 -109.664062 Z M 147.476562 -109.664062 "/></g></g></g><g fill="#126171" fill-opacity="1"><g transform="translate(1173.597127, 639.709325)"><g><path d="M 23.5 0.703125 C 19.738281 0.703125 16.046875 0.0546875 12.421875 -1.234375 C 8.796875 -2.523438 5.503906 -4.515625 2.546875 -7.203125 L 8.96875 -14.890625 C 11.21875 -13.054688 13.53125 -11.597656 15.90625 -10.515625 C 18.289062 -9.429688 20.894531 -8.890625 23.71875 -8.890625 C 25.976562 -8.890625 27.726562 -9.300781 28.96875 -10.125 C 30.21875 -10.945312 30.84375 -12.085938 30.84375 -13.546875 L 30.84375 -13.6875 C 30.84375 -14.394531 30.710938 -15.019531 30.453125 -15.5625 C 30.191406 -16.101562 29.695312 -16.609375 28.96875 -17.078125 C 28.238281 -17.546875 27.226562 -18.015625 25.9375 -18.484375 C 24.644531 -18.960938 22.960938 -19.457031 20.890625 -19.96875 C 18.398438 -20.582031 16.140625 -21.265625 14.109375 -22.015625 C 12.085938 -22.773438 10.367188 -23.707031 8.953125 -24.8125 C 7.546875 -25.914062 6.453125 -27.289062 5.671875 -28.9375 C 4.898438 -30.582031 4.515625 -32.628906 4.515625 -35.078125 L 4.515625 -35.21875 C 4.515625 -37.476562 4.9375 -39.515625 5.78125 -41.328125 C 6.632812 -43.140625 7.820312 -44.703125 9.34375 -46.015625 C 10.875 -47.335938 12.695312 -48.347656 14.8125 -49.046875 C 16.9375 -49.753906 19.269531 -50.109375 21.8125 -50.109375 C 25.4375 -50.109375 28.765625 -49.566406 31.796875 -48.484375 C 34.828125 -47.398438 37.613281 -45.847656 40.15625 -43.828125 L 34.515625 -35.640625 C 32.304688 -37.148438 30.140625 -38.335938 28.015625 -39.203125 C 25.898438 -40.078125 23.785156 -40.515625 21.671875 -40.515625 C 19.546875 -40.515625 17.953125 -40.101562 16.890625 -39.28125 C 15.835938 -38.457031 15.3125 -37.429688 15.3125 -36.203125 L 15.3125 -36.0625 C 15.3125 -35.257812 15.460938 -34.5625 15.765625 -33.96875 C 16.078125 -33.382812 16.628906 -32.859375 17.421875 -32.390625 C 18.222656 -31.921875 19.316406 -31.472656 20.703125 -31.046875 C 22.097656 -30.628906 23.851562 -30.140625 25.96875 -29.578125 C 28.46875 -28.910156 30.691406 -28.164062 32.640625 -27.34375 C 34.597656 -26.519531 36.242188 -25.53125 37.578125 -24.375 C 38.921875 -23.226562 39.929688 -21.878906 40.609375 -20.328125 C 41.296875 -18.773438 41.640625 -16.914062 41.640625 -14.75 L 41.640625 -14.609375 C 41.640625 -12.160156 41.191406 -9.984375 40.296875 -8.078125 C 39.398438 -6.171875 38.148438 -4.570312 36.546875 -3.28125 C 34.953125 -1.988281 33.050781 -1 30.84375 -0.3125 C 28.632812 0.363281 26.1875 0.703125 23.5 0.703125 Z M 23.5 0.703125 "/></g></g></g><g fill="#126171" fill-opacity="1"><g transform="translate(1236.657901, 639.709325)"><g><path d="M 6.421875 -49.40625 L 17.296875 -49.40625 L 17.296875 0 L 6.421875 0 Z M 6.421875 -49.40625 "/></g></g></g><g fill="#126171" fill-opacity="1"><g transform="translate(1278.281035, 639.709325)"><g><path d="M 5.921875 -49.40625 L 15.953125 -49.40625 L 39.09375 -18.984375 L 39.09375 -49.40625 L 49.828125 -49.40625 L 49.828125 0 L 40.578125 0 L 16.65625 -31.40625 L 16.65625 0 L 5.921875 0 Z M 5.921875 -49.40625 "/></g></g></g><g fill="#126171" fill-opacity="1"><g transform="translate(1351.919579, 639.709325)"><g><path d="M 29.71875 0.84375 C 25.851562 0.84375 22.332031 0.207031 19.15625 -1.0625 C 15.976562 -2.332031 13.25 -4.09375 10.96875 -6.34375 C 8.6875 -8.601562 6.910156 -11.285156 5.640625 -14.390625 C 4.367188 -17.503906 3.734375 -20.894531 3.734375 -24.5625 L 3.734375 -24.703125 C 3.734375 -28.234375 4.378906 -31.535156 5.671875 -34.609375 C 6.972656 -37.691406 8.773438 -40.398438 11.078125 -42.734375 C 13.390625 -45.066406 16.117188 -46.898438 19.265625 -48.234375 C 22.421875 -49.578125 25.878906 -50.25 29.640625 -50.25 C 31.847656 -50.25 33.859375 -50.09375 35.671875 -49.78125 C 37.484375 -49.476562 39.164062 -49.046875 40.71875 -48.484375 C 42.269531 -47.921875 43.726562 -47.210938 45.09375 -46.359375 C 46.457031 -45.515625 47.773438 -44.550781 49.046875 -43.46875 L 42.203125 -35.21875 C 41.265625 -36.019531 40.320312 -36.722656 39.375 -37.328125 C 38.4375 -37.941406 37.460938 -38.460938 36.453125 -38.890625 C 35.441406 -39.316406 34.347656 -39.644531 33.171875 -39.875 C 31.992188 -40.113281 30.703125 -40.234375 29.296875 -40.234375 C 27.316406 -40.234375 25.46875 -39.820312 23.75 -39 C 22.03125 -38.175781 20.523438 -37.066406 19.234375 -35.671875 C 17.941406 -34.285156 16.929688 -32.660156 16.203125 -30.796875 C 15.472656 -28.941406 15.109375 -26.957031 15.109375 -24.84375 L 15.109375 -24.703125 C 15.109375 -22.441406 15.472656 -20.359375 16.203125 -18.453125 C 16.929688 -16.546875 17.960938 -14.882812 19.296875 -13.46875 C 20.640625 -12.0625 22.21875 -10.96875 24.03125 -10.1875 C 25.84375 -9.414062 27.851562 -9.03125 30.0625 -9.03125 C 34.113281 -9.03125 37.523438 -10.019531 40.296875 -12 L 40.296875 -19.0625 L 29.359375 -19.0625 L 29.359375 -28.4375 L 50.8125 -28.4375 L 50.8125 -6.984375 C 48.269531 -4.816406 45.242188 -2.96875 41.734375 -1.4375 C 38.234375 0.0820312 34.226562 0.84375 29.71875 0.84375 Z M 29.71875 0.84375 "/></g></g></g><g fill="#126171" fill-opacity="1"><g transform="translate(1425.135001, 639.709325)"><g><path d="M 22.875 -49.75 L 32.890625 -49.75 L 54.0625 0 L 42.703125 0 L 38.1875 -11.078125 L 17.296875 -11.078125 L 12.78125 0 L 1.6875 0 Z M 34.296875 -20.671875 L 27.734375 -36.703125 L 21.171875 -20.671875 Z M 34.296875 -20.671875 "/></g></g></g><g fill="#126171" fill-opacity="1"><g transform="translate(1498.773562, 639.709325)"><g><path d="M 5.921875 -49.40625 L 26.109375 -49.40625 C 29.078125 -49.40625 31.722656 -48.992188 34.046875 -48.171875 C 36.378906 -47.347656 38.359375 -46.179688 39.984375 -44.671875 C 41.609375 -43.171875 42.851562 -41.375 43.71875 -39.28125 C 44.59375 -37.1875 45.03125 -34.867188 45.03125 -32.328125 L 45.03125 -32.1875 C 45.03125 -29.3125 44.507812 -26.789062 43.46875 -24.625 C 42.4375 -22.46875 41.015625 -20.660156 39.203125 -19.203125 C 37.390625 -17.742188 35.269531 -16.648438 32.84375 -15.921875 C 30.425781 -15.191406 27.832031 -14.828125 25.0625 -14.828125 L 16.796875 -14.828125 L 16.796875 0 L 5.921875 0 Z M 25.40625 -24.484375 C 28.132812 -24.484375 30.25 -25.203125 31.75 -26.640625 C 33.257812 -28.078125 34.015625 -29.851562 34.015625 -31.96875 L 34.015625 -32.109375 C 34.015625 -34.554688 33.226562 -36.414062 31.65625 -37.6875 C 30.082031 -38.957031 27.929688 -39.59375 25.203125 -39.59375 L 16.796875 -39.59375 L 16.796875 -24.484375 Z M 25.40625 -24.484375 "/></g></g></g><g fill="#126171" fill-opacity="1"><g transform="translate(1563.808875, 639.709325)"><g><path d="M 29.921875 0.84375 C 26.109375 0.84375 22.601562 0.175781 19.40625 -1.15625 C 16.207031 -2.5 13.441406 -4.3125 11.109375 -6.59375 C 8.785156 -8.875 6.972656 -11.554688 5.671875 -14.640625 C 4.378906 -17.722656 3.734375 -21.03125 3.734375 -24.5625 L 3.734375 -24.703125 C 3.734375 -28.234375 4.390625 -31.535156 5.703125 -34.609375 C 7.023438 -37.691406 8.851562 -40.398438 11.1875 -42.734375 C 13.519531 -45.066406 16.296875 -46.898438 19.515625 -48.234375 C 22.734375 -49.578125 26.25 -50.25 30.0625 -50.25 C 33.875 -50.25 37.378906 -49.578125 40.578125 -48.234375 C 43.773438 -46.898438 46.539062 -45.085938 48.875 -42.796875 C 51.207031 -40.515625 53.019531 -37.832031 54.3125 -34.75 C 55.601562 -31.675781 56.25 -28.375 56.25 -24.84375 L 56.25 -24.703125 C 56.25 -21.171875 55.585938 -17.863281 54.265625 -14.78125 C 52.953125 -11.695312 51.128906 -8.988281 48.796875 -6.65625 C 46.472656 -4.332031 43.695312 -2.5 40.46875 -1.15625 C 37.25 0.175781 33.734375 0.84375 29.921875 0.84375 Z M 30.0625 -9.171875 C 32.226562 -9.171875 34.226562 -9.570312 36.0625 -10.375 C 37.894531 -11.175781 39.457031 -12.28125 40.75 -13.6875 C 42.050781 -15.101562 43.066406 -16.738281 43.796875 -18.59375 C 44.523438 -20.457031 44.890625 -22.445312 44.890625 -24.5625 L 44.890625 -24.703125 C 44.890625 -26.816406 44.523438 -28.816406 43.796875 -30.703125 C 43.066406 -32.585938 42.03125 -34.234375 40.6875 -35.640625 C 39.34375 -37.054688 37.753906 -38.175781 35.921875 -39 C 34.085938 -39.820312 32.085938 -40.234375 29.921875 -40.234375 C 27.710938 -40.234375 25.703125 -39.832031 23.890625 -39.03125 C 22.078125 -38.226562 20.523438 -37.117188 19.234375 -35.703125 C 17.941406 -34.296875 16.929688 -32.660156 16.203125 -30.796875 C 15.472656 -28.941406 15.109375 -26.957031 15.109375 -24.84375 L 15.109375 -24.703125 C 15.109375 -22.585938 15.472656 -20.585938 16.203125 -18.703125 C 16.929688 -16.816406 17.960938 -15.164062 19.296875 -13.75 C 20.640625 -12.34375 22.21875 -11.226562 24.03125 -10.40625 C 25.84375 -9.582031 27.851562 -9.171875 30.0625 -9.171875 Z M 30.0625 -9.171875 "/></g></g></g><g fill="#126171" fill-opacity="1"><g transform="translate(1641.678585, 639.709325)"><g><path d="M 5.921875 -49.40625 L 28.515625 -49.40625 C 34.773438 -49.40625 39.570312 -47.734375 42.90625 -44.390625 C 45.726562 -41.566406 47.140625 -37.800781 47.140625 -33.09375 L 47.140625 -32.953125 C 47.140625 -28.953125 46.160156 -25.691406 44.203125 -23.171875 C 42.253906 -20.660156 39.707031 -18.816406 36.5625 -17.640625 L 48.625 0 L 35.921875 0 L 25.34375 -15.8125 L 16.796875 -15.8125 L 16.796875 0 L 5.921875 0 Z M 27.8125 -25.40625 C 30.488281 -25.40625 32.546875 -26.039062 33.984375 -27.3125 C 35.421875 -28.582031 36.140625 -30.273438 36.140625 -32.390625 L 36.140625 -32.53125 C 36.140625 -34.882812 35.382812 -36.648438 33.875 -37.828125 C 32.375 -39.003906 30.28125 -39.59375 27.59375 -39.59375 L 16.796875 -39.59375 L 16.796875 -25.40625 Z M 27.8125 -25.40625 "/></g></g></g><g fill="#126171" fill-opacity="1"><g transform="translate(1710.592401, 639.709325)"><g><path d="M 5.921875 -49.40625 L 43.1875 -49.40625 L 43.1875 -39.734375 L 16.734375 -39.734375 L 16.734375 -29.71875 L 40.015625 -29.71875 L 40.015625 -20.046875 L 16.734375 -20.046875 L 16.734375 -9.671875 L 43.546875 -9.671875 L 43.546875 0 L 5.921875 0 Z M 5.921875 -49.40625 "/></g></g></g></svg>
